<?xml version="1.0" encoding="UTF-8" standalone="no"?>
<!DOCTYPE svg PUBLIC "-//W3C//DTD SVG 1.1//EN" "http://www.w3.org/Graphics/SVG/1.1/DTD/svg11.dtd">
<svg width="100%" height="100%" viewBox="0 0 1589 656" version="1.1" xmlns="http://www.w3.org/2000/svg" xmlns:xlink="http://www.w3.org/1999/xlink" xml:space="preserve" xmlns:serif="http://www.serif.com/" style="fill-rule:evenodd;clip-rule:evenodd;stroke-linejoin:round;stroke-miterlimit:2;">
    <g transform="matrix(1,0,0,1,-1788,0)">
        <g id="logo" transform="matrix(0.727505,0,0,1,745.869,1954)">
            <rect x="1432.47" y="-1954" width="2183.53" height="656" style="fill:none;"/>
            <g transform="matrix(1.37456,0,0,1,-1025.24,-1954)">
                <path d="M1980.99,315.615c-80.799,16.8 -142.018,13.755 -150.582,-11.196c-7.722,-22.497 29.272,-57.225 90.924,-90.492l-35.186,-126.752c-0.2,-0.392 -0.364,-0.799 -0.49,-1.22c-4.44,-14.82 39.379,-41.06 97.792,-58.561c58.413,-17.501 109.441,-19.677 113.882,-4.857c0.028,0.094 0.054,0.19 0.078,0.284l50.121,112.52c71.931,-12.807 124.964,-8.479 132.891,14.615c8.796,25.627 -40.437,67.129 -118.049,104.261c14.23,16.682 11.725,36.554 11.725,36.554c0,0 35.355,-56.66 68.554,-52.505c33.196,4.149 26.954,54.402 26.954,100.234c-0,31.127 -8.249,61.496 20.801,56.001c29.048,-5.502 55.585,-154.309 55.585,-154.309l49.812,-0l-33.763,148.658c5.488,5.55 27.214,-7.095 40.181,-24.775c12.968,-17.684 16.818,-48.4 16.818,-48.4c-0,0 -12.467,-278.205 78.181,-282.94c1.438,-0.074 2.873,-0.066 4.365,-0c95.442,4.149 20.884,285.361 -26.878,341.221c11.358,29.154 19.318,37.94 48.059,24.648c12.189,-28.917 6.271,-108.198 71.123,-148.144c32.69,-20.139 98.387,-10.468 101.417,10.783c0,-0 -44.717,130.514 -28.119,126.369c51.582,16.894 34.341,-77.013 78.955,-118.92c33.198,-29.586 70.525,-24.81 103.725,-24.135l60.826,-211.091l58.196,-0.521c-0,0 -101.881,357.624 -93.473,361.556c8.12,3.785 20.929,22.865 50.579,-9.116c32.904,-35.492 60.338,-143.779 60.338,-143.779l45.573,0c0,0 -43.723,152.034 -10.525,147.887c33.196,-4.153 57.67,-27.939 57.67,-27.939c0,0 -6.016,-116.958 60.563,-125.45c71.939,-9.176 62.705,86.877 -20.668,149.281c12.445,28.316 76.117,27.047 93.329,-5.651c17.211,-32.699 38.744,-81.885 64.315,-137.36l41.468,12.449l-20.799,45.574c19.787,31.84 38.37,63.905 44.547,98.467c-0,0 20.947,10.351 31.324,14.507c-11.523,15.663 -14.258,27.253 -23.878,34.275c-24.28,-8.093 -28.886,-12.288 -29.141,-14.25c-18.025,27.948 -79.407,30.729 -100.262,-6.806c-16.354,11.251 -55.046,32.567 -75.102,25.422c-20.048,-7.154 -36.041,-9.461 -51.734,-39.025c-21.07,22.025 -48.847,39.826 -76.637,36.843c-27.8,-2.99 -33.536,-33.447 -44.809,-47.758c-0,0 -27.476,55.888 -85.111,51.991c-57.638,-3.898 -60.85,-26.315 -60.85,-26.315c-0,0 -37.309,47.569 -105.783,1.926c-24.898,41.5 -70.479,0 -70.479,0c0,0 -39.444,37.281 -87.165,6.162c-19.678,15.038 -65.476,27.357 -98.465,10.269c-25.456,-13.187 -26.309,-29.536 -29.013,-50.325c-12.281,12.243 -25.586,28.701 -42.621,38c-17.035,9.296 -47.114,13.613 -47.114,13.613l-67.013,208.607l-95.512,-0l8.346,-41.594l57.513,-4.619l50.323,-161.369c-0,0 -41.514,4.148 -62.263,0c-20.749,-4.156 -16.54,-116.181 -12.391,-132.783c4.15,-16.6 -41.528,33.289 -41.528,33.289c0,0 -16.607,66.373 -37.358,91.276c-20.747,24.898 -128.633,16.56 -128.633,16.56l-47.333,198.522l-49.81,0c-0,0 46.824,-224.092 61.684,-339.667Zm1299.07,21.631c-0,-0 25.018,53.357 20.538,61.618c-11.196,20.654 -50.609,-0.33 -48.393,-7.32l27.855,-54.298Zm-1164.63,-39.414c5.489,0.119 10.399,1.448 14.249,4.746c20.54,17.607 2.409,78.73 -18.486,92.691c-25.123,16.782 -76.768,5.01 -76.768,5.01l20.539,-79.215c2.385,0 36.679,-23.75 60.466,-23.232Zm704.077,-2.4c11.886,-0.33 16.578,-2.041 22.403,2.4l-18.872,83.573c-4.15,12.616 -60.398,22.819 -66.627,-6.034c-5.836,-27.063 10.068,-48.222 21.628,-62.738c9.341,-11.722 26.193,-16.773 41.468,-17.201Zm-184.99,2.332c3.231,-0.066 6.606,0.469 10.017,1.668l-21.183,76.085c-10.374,14.523 -38.114,20.777 -40.761,-0.404c-3.446,-27.577 20.696,-76.727 51.927,-77.349Zm494.147,-13.343c9.472,-7.962 16.364,-6.29 17.846,-0.824c1.479,5.47 -35.747,54.452 -35.747,54.452c0.203,-18.42 8.427,-45.664 17.901,-53.628Zm-627.911,-184.594c0.439,-0.058 0.839,-0.033 1.284,-0c19.832,1.615 -39.478,192.996 -39.478,192.996c-6.152,-2.038 10.417,-189.086 38.194,-192.996Zm527.109,42.551c22.411,-0.763 32.958,16.344 32.26,33.052c-0.699,16.708 -12.642,33.016 -35.213,30.653c-32.318,-3.384 -41.867,-62.181 2.953,-63.705Z" style="fill:#ea618e;"/>
            </g>
            <g transform="matrix(1.37456,0,0,1,-1025.24,-1954)">
                <path d="M2456.53,614.674c-0.486,0.492 -0.976,0.985 -1.469,1.478c-5.398,5.4 -11.09,10.595 -17.071,15.589c-5.985,4.993 -12.078,9.379 -18.288,13.158c-6.208,3.778 -12.437,6.68 -18.689,8.704c-6.256,2.025 -12.349,2.767 -18.288,2.226c-2.611,-0.269 -5.646,-1.127 -9.11,-2.563c-3.462,-1.441 -6.727,-3.735 -9.783,-6.883c-3.059,-3.15 -5.6,-7.312 -7.625,-12.483c-2.024,-5.172 -2.854,-11.583 -2.496,-19.232c0.179,-3.776 1.101,-8.656 2.766,-14.641c1.664,-5.984 3.936,-12.572 6.815,-19.772c2.879,-7.196 6.364,-14.797 10.46,-22.807c4.092,-8.006 8.658,-15.923 13.696,-23.752c5.037,-7.826 10.48,-15.339 16.331,-22.538c5.848,-7.196 12.011,-13.583 18.49,-19.163c6.476,-5.577 13.202,-10.144 20.175,-13.698c6.97,-3.553 14.103,-5.602 21.389,-6.139c5.216,-0.36 9.491,0.249 12.82,1.821c3.329,1.575 5.892,3.69 7.695,6.342c1.796,2.657 2.944,5.648 3.441,8.976c0.492,3.331 0.472,6.566 -0.068,9.718c-0.54,3.507 -1.463,6.769 -2.768,9.782c-1.305,3.017 -2.721,5.784 -4.25,8.302c-1.532,2.518 -3.037,4.767 -4.521,6.746c-1.484,1.98 -2.723,3.644 -3.712,4.992c-1.709,2.429 -3.397,3.804 -5.062,4.117c-1.665,0.317 -2.991,0.068 -3.979,-0.742c-0.992,-0.809 -1.552,-1.977 -1.686,-3.507c-0.137,-1.532 0.515,-2.924 1.956,-4.186c0.448,-0.448 1.369,-1.551 2.767,-3.308c1.392,-1.751 2.854,-3.82 4.385,-6.205c1.53,-2.383 2.946,-4.88 4.252,-7.492c1.303,-2.607 2.134,-4.992 2.496,-7.152c0.179,-1.347 0.404,-3.011 0.675,-4.992c0.27,-1.977 0.112,-3.847 -0.473,-5.6c-0.585,-1.756 -1.868,-3.127 -3.846,-4.117c-1.979,-0.991 -5.128,-1.168 -9.447,-0.541c-2.071,0.36 -5.287,2.003 -9.649,4.927c-4.364,2.925 -9.312,7.063 -14.845,12.415c-5.532,5.355 -11.382,11.855 -17.542,19.501c-6.166,7.647 -12.105,16.31 -17.817,25.98c-5.714,9.67 -10.931,20.31 -15.654,31.916c-4.724,11.606 -8.389,24.022 -11,37.246c-0.179,1.08 -0.316,2.545 -0.405,4.386c-0.088,1.846 -0.045,3.869 0.137,6.074c0.179,2.205 0.516,4.433 1.012,6.679c0.494,2.249 1.237,4.274 2.227,6.074c0.989,1.8 2.248,3.259 3.779,4.386c1.528,1.123 3.373,1.639 5.533,1.552c4.588,-0.182 9.446,-1.44 14.573,-3.778c5.129,-2.34 10.326,-5.399 15.589,-9.177c5.262,-3.78 10.48,-8.029 15.655,-12.754c5.171,-4.723 10.121,-9.558 14.844,-14.506c2.175,-2.279 4.288,-4.538 6.339,-6.779c0.902,-3.311 2.298,-6.898 4.187,-10.767c1.933,-3.957 4.385,-8.008 7.355,-12.145c2.969,-4.136 6.522,-7.85 10.661,-11.133c4.138,-3.283 8.884,-5.873 14.237,-7.761c5.354,-1.888 11.358,-2.566 18.018,-2.025c1.528,0.182 2.787,0.541 3.778,1.08c0.989,0.541 1.754,1.146 2.294,1.824c0.539,0.673 0.855,1.278 0.945,1.819c0.088,0.541 0.044,0.811 -0.135,0.811c-2.429,0.18 -5.107,1.146 -8.031,2.903c-2.925,1.755 -5.892,4.004 -8.905,6.746c-3.016,2.746 -5.986,5.849 -8.908,9.312c-2.925,3.464 -5.557,7.017 -7.894,10.66c-2.341,3.645 -4.298,7.245 -5.871,10.797c-1.575,3.555 -2.587,6.726 -3.037,9.517c-0.181,0.809 -0.315,1.868 -0.404,3.171c-0.09,1.303 -0.023,2.562 0.202,3.776c0.224,1.215 0.72,2.294 1.485,3.239c0.762,0.946 2.001,1.552 3.711,1.824c2.16,0.269 4.677,-0.472 7.556,-2.228c2.88,-1.753 5.916,-4.118 9.11,-7.084c3.193,-2.971 6.343,-6.298 9.447,-9.987c3.105,-3.688 5.958,-7.288 8.57,-10.795c-1.709,-0.899 -3.104,-2.025 -4.183,-3.376c-1.08,-1.351 -1.957,-2.855 -2.632,-4.522c-0.676,-1.664 -1.125,-3.392 -1.349,-5.196c-0.227,-1.796 -0.339,-3.596 -0.339,-5.396c0.089,-2.698 0.922,-5.062 2.499,-7.087c1.571,-2.022 3.507,-3.529 5.801,-4.519c2.296,-0.989 4.723,-1.463 7.289,-1.418c2.563,0.048 4.857,0.721 6.881,2.025c2.026,1.306 3.554,3.285 4.589,5.937c1.035,2.657 1.236,6.097 0.608,10.326c-0.181,0.99 -0.383,1.979 -0.608,2.967c-0.224,0.993 -0.472,1.981 -0.742,2.97c3.057,-0.269 6.183,-0.878 9.379,-1.824c3.193,-0.942 6.186,-2.157 8.974,-3.643l0.248,-0.133c1.139,-1.761 2.384,-3.493 3.735,-5.196c2.922,-3.688 6.341,-6.972 10.256,-9.853c3.914,-2.879 8.321,-5.239 13.226,-7.085c4.902,-1.843 10.324,-2.854 16.261,-3.035c2.7,-0.088 4.971,0.181 6.816,0.809c1.843,0.63 3.373,1.417 4.588,2.362c1.216,0.943 2.18,1.981 2.9,3.104c0.72,1.126 1.26,2.136 1.621,3.035c1.53,3.78 1.911,7.38 1.147,10.796c-0.766,3.423 -2.497,6.389 -5.195,8.907c-1.35,1.262 -2.655,1.913 -3.913,1.956c-1.262,0.049 -2.252,-0.244 -2.97,-0.874c-0.721,-0.63 -1.011,-1.486 -0.879,-2.564c0.136,-1.08 0.968,-2.162 2.499,-3.24c0.896,-0.629 1.663,-1.821 2.293,-3.576c0.628,-1.756 0.899,-3.509 0.81,-5.263c-0.089,-1.757 -0.697,-3.284 -1.821,-4.588c-1.127,-1.303 -3.039,-1.823 -5.736,-1.554c-3.509,0.36 -6.839,1.466 -9.987,3.307c-3.15,1.845 -6.052,4.096 -8.705,6.748c-2.653,2.656 -5.038,5.556 -7.152,8.705c-2.113,3.152 -3.936,6.231 -5.466,9.245c-1.53,3.015 -2.721,5.781 -3.575,8.3c-0.856,2.518 -1.375,4.454 -1.552,5.801c-0.271,2.612 -0.182,4.858 0.269,6.747c0.448,1.891 1.168,3.466 2.16,4.726c0.989,1.258 2.112,2.205 3.374,2.833c1.259,0.63 2.563,0.943 3.913,0.943c5.578,0 10.885,-1.009 15.924,-3.034c5.039,-2.025 9.76,-4.634 14.17,-7.83c4.408,-3.191 8.524,-6.768 12.348,-10.727c2.418,-2.502 4.709,-5.014 6.874,-7.534c2.061,-6.185 4.516,-13.075 7.364,-20.67c2.968,-7.917 6.32,-15.948 10.055,-24.09c3.732,-8.142 7.802,-16.104 12.212,-23.888c4.408,-7.782 9.064,-14.778 13.968,-20.984c4.903,-6.209 10.008,-11.313 15.319,-15.317c5.308,-4.002 10.75,-6.278 16.328,-6.816c4.319,-0.45 7.872,-0.089 10.661,1.078c2.789,1.171 4.994,2.791 6.613,4.859c1.62,2.073 2.744,4.41 3.374,7.017c0.63,2.612 0.989,5.155 1.08,7.625c0.088,2.477 -0.024,4.725 -0.337,6.75c-0.315,2.025 -0.608,3.44 -0.878,4.25c-2.07,5.849 -4.678,11.36 -7.827,16.533c-3.15,5.175 -7.152,9.738 -12.01,13.697c-4.86,3.961 -10.686,7.108 -17.478,9.446c-6.794,2.341 -14.868,3.6 -24.224,3.78c-1.709,3.776 -3.354,7.558 -4.925,11.334c-1.575,3.78 -3.128,7.557 -4.657,11.337c3.508,-3.239 7.153,-6.141 10.932,-8.703c3.778,-2.566 7.399,-4.659 10.863,-6.277c3.463,-1.621 6.567,-2.699 9.313,-3.24c2.743,-0.538 4.79,-0.447 6.14,0.272c2.699,1.531 4.251,4.004 4.656,7.421c0.405,3.422 0.11,7.221 -0.877,11.405c-0.992,4.182 -2.453,8.547 -4.386,13.09c-1.936,4.545 -3.869,8.772 -5.804,12.687c-1.935,3.913 -3.643,7.264 -5.127,10.052c-1.485,2.789 -2.274,4.545 -2.363,5.264c-0.361,2.071 -0.45,3.422 -0.269,4.048c0.179,0.633 0.674,0.901 1.485,0.81c3.147,-0.269 6.836,-1.82 11.064,-4.655c4.23,-2.835 8.592,-6.365 13.091,-10.595c1.906,-1.79 3.807,-3.645 5.704,-5.565c0.873,-3.198 2.053,-6.493 3.539,-9.886c1.753,-4.001 3.958,-7.962 6.613,-11.877c2.651,-3.914 5.757,-7.558 9.311,-10.93c3.554,-3.376 7.535,-6.298 11.945,-8.772c4.405,-2.473 9.312,-4.205 14.709,-5.196c3.326,-0.628 6.298,-0.809 8.906,-0.539c2.609,0.267 4.881,0.877 6.816,1.819c1.934,0.946 3.531,2.184 4.791,3.712c1.259,1.53 2.205,3.151 2.833,4.859c1.081,-2.069 2.046,-3.868 2.902,-5.4c0.855,-1.527 1.552,-2.698 2.092,-3.508c1.438,-2.518 2.923,-4.338 4.454,-5.465c1.53,-1.122 2.946,-1.888 4.251,-2.292c1.304,-0.405 2.43,-0.562 3.373,-0.473c0.946,0.089 1.597,0.133 1.958,0.133c1.619,-0 2.946,0.34 3.981,1.013c1.033,0.674 1.821,1.44 2.362,2.294c0.54,0.857 0.876,1.754 1.013,2.698c0.133,0.946 0.155,1.735 0.066,2.364c-0.361,1.709 -1.17,3.869 -2.429,6.476c-1.262,2.612 -2.722,5.49 -4.386,8.638c-1.664,3.15 -3.488,6.499 -5.467,10.055c-1.978,3.555 -3.869,7.04 -5.667,10.458c-1.8,3.42 -3.42,6.748 -4.859,9.987c-1.44,3.239 -2.474,6.118 -3.104,8.636c-0.54,2.072 -0.471,3.219 0.204,3.443c0.674,0.225 1.91,-0.293 3.71,-1.555c3.149,-2.066 6.48,-4.79 9.987,-8.163c3.51,-3.374 6.994,-6.972 10.459,-10.796c2.255,-2.49 4.454,-5 6.595,-7.529c0.379,-1.018 0.767,-2.04 1.165,-3.065c2.787,-7.197 5.847,-14.305 9.176,-21.325c3.327,-7.015 6.521,-13.446 9.582,-19.295c3.057,-5.848 5.735,-10.865 8.03,-15.049c2.293,-4.182 3.847,-7.084 4.656,-8.703c1.168,-2.338 2.361,-4.049 3.577,-5.129c1.214,-1.082 2.429,-1.822 3.643,-2.228c1.215,-0.404 2.406,-0.562 3.576,-0.473c1.168,0.092 2.247,0.136 3.239,0.136c1.977,-0 3.712,0.337 5.195,1.011c1.484,0.677 2.7,1.486 3.644,2.429c0.945,0.946 1.552,1.916 1.821,2.903c0.271,0.993 0.224,1.755 -0.134,2.294c-6.029,9.179 -11.537,17.95 -16.531,26.318c-4.993,8.366 -9.471,16.283 -13.428,23.752c2.336,-2.161 4.858,-4.252 7.557,-6.277c2.698,-2.025 5.418,-3.801 8.164,-5.332c2.745,-1.528 5.443,-2.699 8.097,-3.509c2.654,-0.809 5.105,-1.031 7.356,-0.673c4.049,0.63 7.309,2.248 9.784,4.859c2.473,2.61 4.117,6.479 4.926,11.606c0.18,1.078 0.247,2.497 0.202,4.249c-0.047,1.757 -0.249,3.713 -0.605,5.873c3.956,-1.619 7.779,-3.173 11.469,-4.657c2.867,-1.154 5.559,-2.281 8.075,-3.382c1.02,-1.103 2.084,-2.179 3.192,-3.23c3.553,-3.376 7.534,-6.298 11.943,-8.772c4.406,-2.473 9.312,-4.205 14.71,-5.196c3.326,-0.628 6.296,-0.809 8.906,-0.539c2.609,0.267 4.88,0.877 6.816,1.819c1.933,0.946 3.53,2.184 4.79,3.712c1.259,1.53 2.205,3.151 2.835,4.859c1.08,-2.069 2.045,-3.868 2.901,-5.4c0.854,-1.527 1.552,-2.698 2.092,-3.508c1.439,-2.518 2.924,-4.338 4.454,-5.465c1.53,-1.122 2.945,-1.888 4.251,-2.292c1.304,-0.405 2.429,-0.562 3.373,-0.473c0.946,0.089 1.597,0.133 1.958,0.133c1.619,-0 2.946,0.34 3.981,1.013c1.033,0.674 1.821,1.44 2.362,2.294c0.54,0.857 0.876,1.754 1.013,2.698c0.134,0.946 0.154,1.735 0.065,2.364c-0.36,1.709 -1.17,3.869 -2.429,6.476c-1.261,2.612 -2.723,5.49 -4.387,8.638c-1.664,3.15 -3.486,6.499 -5.464,10.055c-1.98,3.555 -3.869,7.04 -5.667,10.458c-1.802,3.42 -3.421,6.748 -4.86,9.987c-1.44,3.239 -2.474,6.118 -3.104,8.636c-0.539,2.072 -0.471,3.219 0.204,3.443c0.675,0.225 1.91,-0.293 3.71,-1.555c3.148,-2.066 6.479,-4.79 9.987,-8.163c3.51,-3.374 6.994,-6.972 10.458,-10.796c1.098,-1.212 2.183,-2.429 3.253,-3.65c1.788,-3.528 3.716,-7.057 5.787,-10.589c2.745,-4.675 5.487,-8.861 8.233,-12.548c2.745,-3.689 5.308,-6.682 7.692,-8.976c2.382,-2.294 4.386,-3.396 6.005,-3.307c2.431,0.091 4.387,0.428 5.871,1.013c1.484,0.586 2.608,1.349 3.374,2.294c0.763,0.945 1.192,2.048 1.282,3.308c0.089,1.258 -0.047,2.561 -0.405,3.912c-0.181,0.63 -0.833,1.936 -1.957,3.913c-1.126,1.981 -2.543,4.41 -4.251,7.289c-1.71,2.881 -3.599,6.072 -5.669,9.581c-2.07,3.508 -4.183,7.108 -6.342,10.796l-1.349,2.293c3.148,-3.325 6.725,-6.925 10.729,-10.797c4.002,-3.865 8.051,-7.488 12.146,-10.864c4.091,-3.371 7.984,-6.182 11.672,-8.432c3.689,-2.249 6.793,-3.374 9.312,-3.374c3.241,-0 5.602,0.452 7.087,1.351c1.483,0.898 2.496,1.912 3.037,3.036c0.539,1.125 0.761,2.248 0.673,3.374c-0.09,1.126 -0.09,1.868 0,2.226c0.088,0.36 -0.292,1.734 -1.147,4.116c-0.855,2.385 -1.912,5.196 -3.17,8.435c2.697,-3.42 5.802,-7.063 9.311,-10.932c3.509,-3.868 7.196,-7.465 11.066,-10.796c3.868,-3.328 7.827,-6.095 11.876,-8.3c4.05,-2.203 7.962,-3.351 11.741,-3.442c3.058,-0.089 5.645,0.228 7.759,0.945c2.113,0.721 3.801,1.643 5.062,2.766c1.258,1.126 2.136,2.294 2.631,3.509c0.494,1.214 0.742,2.273 0.742,3.171c-0.089,2.79 -0.765,5.985 -2.024,9.581c-1.262,3.6 -2.813,7.245 -4.656,10.933c-1.845,3.69 -3.845,7.288 -6.005,10.796c-2.159,3.509 -4.117,6.614 -5.871,9.312c-1.754,2.698 -3.15,4.883 -4.183,6.547c-1.036,1.664 -1.417,2.449 -1.146,2.361c2.606,-0.54 5.824,-2.069 9.646,-4.589c3.824,-2.518 7.85,-5.533 12.08,-9.042c4.227,-3.511 8.479,-7.264 12.753,-11.268c4.273,-4.002 8.142,-7.761 11.606,-11.27l0.547,-0.555c2.204,-5.399 4.563,-10.747 7.076,-16.046c3.329,-7.015 6.523,-13.446 9.583,-19.295c3.058,-5.848 5.735,-10.865 8.029,-15.049c2.294,-4.182 3.848,-7.084 4.656,-8.703c1.169,-2.338 2.362,-4.049 3.578,-5.129c1.213,-1.082 2.429,-1.822 3.644,-2.228c1.214,-0.404 2.406,-0.562 3.575,-0.473c1.168,0.092 2.247,0.136 3.239,0.136c1.977,-0 3.711,0.337 5.196,1.011c1.484,0.677 2.698,1.486 3.643,2.429c0.946,0.946 1.552,1.916 1.822,2.903c0.27,0.993 0.224,1.755 -0.134,2.294c-6.031,9.179 -11.538,17.95 -16.531,26.318c-4.994,8.366 -9.472,16.283 -13.429,23.752c2.337,-2.161 4.857,-4.252 7.557,-6.277c2.698,-2.025 5.418,-3.801 8.164,-5.332c2.745,-1.528 5.443,-2.699 8.098,-3.509c2.653,-0.809 5.104,-1.031 7.355,-0.673c4.05,0.63 7.308,2.248 9.784,4.859c2.474,2.61 4.117,6.479 4.926,11.606c0.179,1.078 0.247,2.497 0.202,4.249c-0.046,1.757 -0.248,3.713 -0.606,5.873c3.958,-1.619 7.78,-3.173 11.47,-4.657c2.868,-1.154 5.56,-2.281 8.076,-3.382c1.019,-1.103 2.083,-2.179 3.191,-3.23c3.552,-3.376 7.533,-6.298 11.943,-8.772c4.406,-2.473 9.312,-4.205 14.71,-5.196c3.327,-0.628 6.297,-0.809 8.906,-0.539c2.61,0.267 4.88,0.877 6.815,1.819c1.934,0.946 3.531,2.184 4.791,3.712c1.26,1.53 2.205,3.151 2.835,4.859c1.08,-2.069 2.045,-3.868 2.902,-5.4c0.854,-1.527 1.552,-2.698 2.091,-3.508c1.439,-2.518 2.923,-4.338 4.454,-5.465c1.53,-1.122 2.946,-1.888 4.252,-2.292c1.303,-0.405 2.429,-0.562 3.373,-0.473c0.945,0.089 1.597,0.133 1.956,0.133c1.62,-0 2.947,0.34 3.981,1.013c1.035,0.674 1.823,1.44 2.364,2.294c0.539,0.857 0.875,1.754 1.012,2.698c0.134,0.946 0.155,1.735 0.066,2.364c-0.361,1.709 -1.171,3.869 -2.429,6.476c-1.261,2.612 -2.723,5.49 -4.387,8.638c-1.664,3.15 -3.487,6.499 -5.466,10.055c-1.979,3.555 -3.868,7.04 -5.666,10.458c-1.802,3.42 -3.421,6.748 -4.859,9.987c-1.442,3.239 -2.475,6.118 -3.104,8.636c-0.54,2.072 -0.472,3.219 0.202,3.443c0.675,0.225 1.911,-0.293 3.712,-1.555c3.147,-2.066 6.478,-4.79 9.985,-8.163c3.511,-3.374 6.995,-6.972 10.46,-10.796c3.463,-3.824 6.792,-7.693 9.987,-11.605c3.194,-3.916 6.026,-7.469 8.503,-10.663c2.474,-3.193 4.52,-5.847 6.139,-7.963c1.619,-2.113 2.565,-3.259 2.835,-3.44c0.357,-0.272 0.876,-0.404 1.552,-0.404c0.674,-0 1.302,0.157 1.89,0.472c0.583,0.316 1.031,0.742 1.348,1.279c0.316,0.541 0.291,1.216 -0.067,2.025c-0.269,0.541 -1.126,1.956 -2.566,4.253c-1.439,2.294 -3.373,5.152 -5.8,8.569c-2.431,3.422 -5.264,7.198 -8.504,11.336c-3.239,4.141 -6.727,8.367 -10.458,12.685c-3.736,4.32 -7.672,8.527 -11.808,12.619c-4.141,4.097 -8.324,7.761 -12.552,10.997c-0.722,0.453 -1.778,1.151 -3.171,2.093c-1.396,0.946 -3.037,1.847 -4.925,2.701c-1.89,0.854 -3.915,1.528 -6.073,2.022c-2.16,0.494 -4.276,0.608 -6.343,0.339c-1.619,-0.272 -2.902,-0.9 -3.846,-1.891c-0.946,-0.987 -1.6,-2.293 -1.957,-3.912c-0.36,-1.621 -0.452,-3.486 -0.27,-5.602c0.179,-2.112 0.538,-4.385 1.079,-6.814c-1.979,2.072 -4.408,4.164 -7.287,6.273c-2.88,2.116 -5.872,4.006 -8.975,5.67c-3.104,1.666 -6.119,3.061 -9.041,4.184c-2.925,1.126 -5.422,1.731 -7.491,1.82c-3.239,0.089 -6.029,-0.36 -8.366,-1.347c-2.339,-0.99 -4.253,-2.317 -5.736,-3.981c-1.485,-1.664 -2.565,-3.532 -3.239,-5.6c-0.675,-2.07 -1.012,-4.138 -1.012,-6.209c-0,-2.879 0.451,-6.186 1.348,-9.919c0.901,-3.732 2.228,-7.601 3.983,-11.606c0.858,-1.958 1.824,-3.907 2.898,-5.845c-3.937,1.625 -7.941,3.281 -12.007,4.967c-1.349,4.77 -3.194,9.718 -5.533,14.846c-2.34,5.127 -5.285,9.829 -8.839,14.103c-3.556,4.273 -7.759,7.805 -12.618,10.592c-4.858,2.79 -10.438,4.23 -16.734,4.321c-2.7,-0 -4.926,-0.473 -6.68,-1.419c-1.755,-0.946 -3.105,-2.116 -4.049,-3.507c-0.944,-1.395 -1.551,-2.856 -1.821,-4.387c-0.271,-1.532 -0.317,-2.787 -0.136,-3.78c0.629,-3.327 2.024,-6.478 4.185,-9.445c2.157,-2.97 4.856,-5.78 8.096,-8.435c3.238,-2.654 6.904,-5.152 10.998,-7.489c4.093,-2.341 8.388,-4.543 12.889,-6.614c1.258,-3.508 2.295,-6.905 3.105,-10.19c0.81,-3.281 1.214,-6.159 1.214,-8.636c0,-2.474 -0.404,-4.454 -1.214,-5.938c-0.81,-1.487 -2.206,-2.228 -4.185,-2.228c-1.8,0.092 -4.048,1.061 -6.749,2.902c-2.697,1.844 -5.533,4.118 -8.5,6.815c-2.97,2.698 -5.894,5.601 -8.774,8.704c-2.88,3.106 -5.398,5.873 -7.556,8.302c-4.588,10.254 -7.581,18.689 -8.975,25.304c-1.396,6.611 -0.968,10.684 1.281,12.211c0.631,0.453 0.789,0.991 0.473,1.621c-0.315,0.628 -0.967,1.214 -1.956,1.755c-0.99,0.537 -2.206,1.011 -3.644,1.416c-1.441,0.404 -2.925,0.609 -4.453,0.609c-1.08,-0 -2.16,-0.228 -3.241,-0.678c-1.078,-0.449 -2.046,-1.079 -2.9,-1.888c-0.856,-0.81 -1.552,-1.844 -2.093,-3.104c-0.539,-1.258 -0.809,-2.701 -0.809,-4.317c0.091,-5.488 1.079,-11.653 2.97,-18.489c0.697,-2.52 1.454,-5.066 2.273,-7.637c-1.789,1.747 -3.648,3.528 -5.578,5.34c-5.264,4.951 -10.549,9.562 -15.857,13.835c-5.31,4.274 -10.46,7.873 -15.453,10.796c-4.993,2.926 -9.335,4.522 -13.023,4.791c-1.89,0.18 -3.758,0.112 -5.601,-0.205c-1.846,-0.315 -3.51,-0.943 -4.993,-1.888c-1.484,-0.943 -2.655,-2.246 -3.51,-3.913c-0.855,-1.664 -1.235,-3.8 -1.146,-6.41c0.089,-1.259 0.765,-3.396 2.024,-6.41c1.26,-3.015 2.856,-6.431 4.792,-10.256c1.934,-3.824 4.001,-7.828 6.206,-12.01c2.204,-4.185 4.274,-8.054 6.208,-11.61c1.935,-3.552 3.555,-6.563 4.86,-9.04c1.303,-2.474 2.001,-3.934 2.09,-4.386c0.089,-0.629 -0.022,-1.013 -0.337,-1.147c-0.316,-0.135 -0.673,-0.135 -1.078,-0c-0.405,0.134 -0.834,0.317 -1.283,0.538c-0.45,0.228 -0.81,0.429 -1.081,0.609c-3.869,2.699 -7.961,6.121 -12.279,10.255c-4.319,4.141 -8.39,8.325 -12.213,12.553c-3.826,4.228 -7.243,8.145 -10.257,11.741c-3.016,3.599 -5.151,6.254 -6.41,7.962l-1.89,4.586c-0.991,2.791 -2.679,4.883 -5.061,6.278c-2.384,1.395 -4.748,2.093 -7.084,2.093c-2.34,-0 -4.366,-0.678 -6.074,-2.025c-1.709,-1.351 -2.384,-3.376 -2.023,-6.073c0.177,-1.351 0.808,-3.261 1.889,-5.736c1.078,-2.475 2.381,-5.15 3.913,-8.031c1.529,-2.878 3.105,-5.825 4.724,-8.839c1.619,-3.011 3.013,-5.737 4.183,-8.163c1.167,-2.429 1.957,-4.431 2.362,-6.006c0.405,-1.575 0.203,-2.408 -0.607,-2.497c-0.361,-0 -1.577,0.922 -3.644,2.766c-2.071,1.845 -4.589,4.182 -7.558,7.017c-2.969,2.834 -6.231,6.028 -9.783,9.581c-3.556,3.555 -7.018,6.975 -10.391,10.258c-3.375,3.284 -6.434,6.299 -9.178,9.041c-2.746,2.745 -4.837,4.79 -6.275,6.141c-1.89,3.508 -3.826,5.937 -5.803,7.289c-0.993,0.721 -2.251,1.125 -3.779,1.214c-1.531,0.088 -2.99,-0.136 -4.388,-0.677c-1.392,-0.537 -2.563,-1.46 -3.508,-2.766c-0.943,-1.303 -1.282,-3.035 -1.011,-5.195c0.168,-1.844 0.588,-3.949 1.26,-6.315c-0.417,0.419 -0.836,0.837 -1.257,1.254c-4.141,4.097 -8.324,7.761 -12.551,10.997c-0.723,0.453 -1.779,1.151 -3.173,2.093c-1.396,0.946 -3.037,1.847 -4.923,2.701c-1.891,0.854 -3.916,1.528 -6.075,2.022c-2.159,0.494 -4.276,0.608 -6.343,0.339c-1.619,-0.272 -2.901,-0.9 -3.846,-1.891c-0.945,-0.987 -1.599,-2.293 -1.956,-3.912c-0.361,-1.621 -0.452,-3.486 -0.27,-5.602c0.179,-2.112 0.538,-4.385 1.079,-6.814c-1.98,2.072 -4.409,4.164 -7.287,6.273c-2.88,2.116 -5.872,4.006 -8.975,5.67c-3.104,1.666 -6.119,3.061 -9.041,4.184c-2.925,1.126 -5.421,1.731 -7.491,1.82c-3.239,0.089 -6.029,-0.36 -8.367,-1.347c-2.339,-0.99 -4.251,-2.317 -5.735,-3.981c-1.485,-1.664 -2.566,-3.532 -3.239,-5.6c-0.675,-2.07 -1.013,-4.138 -1.013,-6.209c0,-2.879 0.451,-6.186 1.35,-9.919c0.899,-3.732 2.227,-7.601 3.981,-11.606c0.858,-1.958 1.824,-3.907 2.899,-5.845c-3.938,1.625 -7.941,3.281 -12.007,4.967c-1.35,4.77 -3.194,9.718 -5.533,14.846c-2.34,5.127 -5.286,9.829 -8.839,14.103c-3.555,4.273 -7.759,7.805 -12.618,10.592c-4.859,2.79 -10.438,4.23 -16.735,4.321c-2.698,-0 -4.925,-0.473 -6.679,-1.419c-1.756,-0.946 -3.105,-2.116 -4.05,-3.507c-0.942,-1.395 -1.55,-2.856 -1.821,-4.387c-0.27,-1.532 -0.317,-2.787 -0.135,-3.78c0.629,-3.327 2.023,-6.478 4.185,-9.445c2.157,-2.97 4.857,-5.78 8.096,-8.435c3.238,-2.654 6.903,-5.152 10.998,-7.489c4.093,-2.341 8.388,-4.543 12.89,-6.614c1.258,-3.508 2.293,-6.905 3.103,-10.19c0.811,-3.281 1.215,-6.159 1.215,-8.636c0,-2.474 -0.404,-4.454 -1.215,-5.938c-0.81,-1.487 -2.206,-2.228 -4.184,-2.228c-1.801,0.092 -4.048,1.061 -6.749,2.902c-2.697,1.844 -5.532,4.118 -8.501,6.815c-2.97,2.698 -5.893,5.601 -8.773,8.704c-2.88,3.106 -5.398,5.873 -7.557,8.302c-4.587,10.254 -7.581,18.689 -8.974,25.304c-1.396,6.611 -0.969,10.684 1.281,12.211c0.63,0.453 0.789,0.991 0.474,1.621c-0.316,0.628 -0.968,1.214 -1.957,1.755c-0.991,0.537 -2.207,1.011 -3.644,1.416c-1.441,0.404 -2.925,0.609 -4.454,0.609c-1.079,-0 -2.16,-0.228 -3.24,-0.678c-1.078,-0.449 -2.047,-1.079 -2.901,-1.888c-0.855,-0.81 -1.55,-1.844 -2.091,-3.104c-0.54,-1.258 -0.81,-2.701 -0.81,-4.317c0.088,-5.217 0.985,-11.046 2.697,-17.481c-2.397,2.608 -4.869,5.173 -7.418,7.695c-4.141,4.097 -8.324,7.761 -12.552,10.997c-0.721,0.453 -1.778,1.151 -3.17,2.093c-1.398,0.946 -3.039,1.847 -4.926,2.701c-1.89,0.854 -3.914,1.528 -6.074,2.022c-2.158,0.494 -4.274,0.608 -6.342,0.339c-1.62,-0.272 -2.903,-0.9 -3.847,-1.891c-0.944,-0.987 -1.599,-2.293 -1.956,-3.912c-0.361,-1.621 -0.452,-3.486 -0.271,-5.602c0.179,-2.112 0.54,-4.385 1.081,-6.814c-1.981,2.072 -4.41,4.164 -7.289,6.273c-2.879,2.116 -5.87,4.006 -8.974,5.67c-3.104,1.666 -6.119,3.061 -9.042,4.184c-2.924,1.126 -5.421,1.731 -7.49,1.82c-3.238,0.089 -6.028,-0.36 -8.367,-1.347c-2.339,-0.99 -4.251,-2.317 -5.735,-3.981c-1.484,-1.664 -2.564,-3.532 -3.239,-5.6c-0.478,-1.464 -0.786,-2.926 -0.926,-4.39c-4.165,3.656 -8.31,6.851 -12.432,9.585c-4.276,2.835 -8.503,4.992 -12.687,6.476c-4.183,1.486 -8.12,1.959 -11.808,1.418c-4.139,-0.63 -7.175,-1.936 -9.108,-3.913c-1.936,-1.98 -3.085,-4.342 -3.442,-7.086c-0.36,-2.744 -0.091,-5.803 0.809,-9.177c0.899,-3.373 2.092,-6.816 3.577,-10.324c1.484,-3.508 3.081,-6.972 4.79,-10.39c1.709,-3.42 3.24,-6.568 4.588,-9.446c1.349,-2.879 2.34,-5.353 2.97,-7.425c0.627,-2.068 0.54,-3.507 -0.27,-4.318c-1.17,-1.166 -2.833,-1.166 -4.994,0c-2.16,1.171 -4.476,2.902 -6.95,5.196c-2.474,2.294 -4.925,4.814 -7.354,7.558c-2.43,2.744 -4.454,5.059 -6.073,6.951c-3.059,7.826 -5.601,14.62 -7.626,20.377c-2.024,5.757 -3.398,9.581 -4.115,11.47c-0.902,2.249 -2.138,3.464 -3.712,3.644c-1.575,0.18 -3.127,-0.269 -4.655,-1.35c-1.531,-1.079 -2.858,-2.54 -3.982,-4.387c-1.123,-1.84 -1.687,-3.709 -1.687,-5.6c-0,-0.813 0.461,-3.026 1.381,-6.638c-3.112,2.899 -6.429,5.651 -9.951,8.258c-5.713,4.232 -11.921,7.76 -18.622,10.595c-6.705,2.834 -13.789,4.339 -21.257,4.522c-3.238,0.088 -6.231,-0.521 -8.973,-1.824c-2.746,-1.304 -5.108,-3.103 -7.085,-5.397c-1.981,-2.296 -3.533,-4.97 -4.657,-8.029c-1.126,-3.059 -1.686,-6.298 -1.686,-9.718c-0,-3.239 0.493,-6.815 1.483,-10.728c0.544,-2.152 1.23,-4.31 2.059,-6.473c-0.941,0.332 -1.897,0.645 -2.869,0.94c-4.587,1.395 -9.087,2.226 -13.495,2.495c-2.519,5.488 -5.758,10.775 -9.716,15.859c-3.961,5.083 -8.301,9.513 -13.024,13.293c-4.724,3.777 -9.649,6.702 -14.777,8.772c-5.128,2.069 -10.122,2.786 -14.98,2.157c-5.039,-0.629 -8.975,-2.024 -11.808,-4.182c-2.835,-2.161 -4.948,-4.634 -6.343,-7.425c-1.394,-2.786 -2.272,-5.667 -2.632,-8.634l-0.015,-0.131Zm693.132,13.084c1.079,-0.089 2.337,-0.786 3.779,-2.089c1.438,-1.304 2.922,-2.991 4.453,-5.063c1.529,-2.069 3.08,-4.474 4.656,-7.22c1.573,-2.742 3.08,-5.646 4.521,-8.704c-6.388,3.151 -11.652,6.343 -15.79,9.582c-4.14,3.239 -6.299,6.478 -6.478,9.716c0,1.621 0.315,2.723 0.945,3.308c0.628,0.586 1.933,0.742 3.914,0.47Zm-321.861,-0c1.08,-0.089 2.338,-0.786 3.779,-2.089c1.439,-1.304 2.923,-2.991 4.454,-5.063c1.529,-2.069 3.079,-4.474 4.656,-7.22c1.572,-2.742 3.079,-5.646 4.521,-8.704c-6.389,3.151 -11.653,6.343 -15.791,9.582c-4.138,3.239 -6.298,6.478 -6.477,9.716c0,1.621 0.314,2.723 0.945,3.308c0.628,0.586 1.932,0.742 3.913,0.47Zm-101.349,-6.206c1.529,-0.089 3.484,-0.698 5.87,-1.824c2.382,-1.123 4.858,-2.65 7.422,-4.587c2.566,-1.932 5.062,-4.185 7.491,-6.747c2.428,-2.565 4.498,-5.331 6.208,-8.302c1.348,-3.416 2.81,-6.88 4.385,-10.39c1.574,-3.51 3.125,-6.881 4.658,-10.119c0.538,-2.703 0.583,-4.816 0.132,-6.346c-0.45,-1.529 -1.101,-2.698 -1.955,-3.509c-0.856,-0.81 -1.823,-1.326 -2.901,-1.552c-1.08,-0.224 -1.938,-0.336 -2.566,-0.336c-1.619,-0.089 -3.555,0.606 -5.802,2.092c-2.25,1.484 -4.634,3.488 -7.152,6.006c-2.52,2.518 -5.04,5.396 -7.557,8.635c-2.52,3.24 -4.816,6.57 -6.884,9.986c-2.071,3.423 -3.825,6.772 -5.264,10.055c-1.439,3.287 -2.317,6.189 -2.631,8.704c-0.316,2.521 -0,4.545 0.945,6.073c0.946,1.531 2.812,2.253 5.601,2.161Zm498.782,0c1.529,-0.089 3.485,-0.698 5.87,-1.824c2.383,-1.123 4.858,-2.65 7.421,-4.587c2.567,-1.932 5.062,-4.185 7.493,-6.747c2.427,-2.565 4.497,-5.331 6.206,-8.302c1.35,-3.416 2.812,-6.88 4.386,-10.39c1.574,-3.51 3.126,-6.881 4.657,-10.119c0.54,-2.703 0.583,-4.816 0.134,-6.346c-0.451,-1.529 -1.101,-2.698 -1.957,-3.509c-0.856,-0.81 -1.822,-1.326 -2.901,-1.552c-1.08,-0.224 -1.936,-0.336 -2.565,-0.336c-1.619,-0.089 -3.554,0.606 -5.803,2.092c-2.249,1.484 -4.633,3.488 -7.151,6.006c-2.519,2.518 -5.041,5.396 -7.558,8.635c-2.52,3.24 -4.814,6.57 -6.883,9.986c-2.071,3.423 -3.826,6.772 -5.263,10.055c-1.439,3.287 -2.317,6.189 -2.632,8.704c-0.317,2.521 0,4.545 0.946,6.073c0.944,1.531 2.81,2.253 5.6,2.161Zm-321.861,0c1.529,-0.089 3.486,-0.698 5.871,-1.824c2.383,-1.123 4.858,-2.65 7.421,-4.587c2.567,-1.932 5.062,-4.185 7.492,-6.747c2.428,-2.565 4.498,-5.331 6.207,-8.302c1.35,-3.416 2.811,-6.88 4.385,-10.39c1.576,-3.51 3.126,-6.881 4.658,-10.119c0.539,-2.703 0.583,-4.816 0.134,-6.346c-0.451,-1.529 -1.102,-2.698 -1.957,-3.509c-0.856,-0.81 -1.822,-1.326 -2.902,-1.552c-1.078,-0.224 -1.935,-0.336 -2.564,-0.336c-1.619,-0.089 -3.555,0.606 -5.804,2.092c-2.248,1.484 -4.632,3.488 -7.15,6.006c-2.52,2.518 -5.041,5.396 -7.557,8.635c-2.522,3.24 -4.815,6.57 -6.884,9.986c-2.071,3.423 -3.826,6.772 -5.264,10.055c-1.438,3.287 -2.317,6.189 -2.631,8.704c-0.317,2.521 -0,4.545 0.945,6.073c0.944,1.531 2.811,2.253 5.6,2.161Zm-386.233,-44.399c-0.091,1.53 -0.046,2.698 0.134,3.508c0.179,0.81 0.493,1.415 0.945,1.82c0.45,0.406 0.966,0.677 1.551,0.81c0.586,0.137 1.238,0.34 1.959,0.609c0.627,-0.99 1.19,-1.889 1.686,-2.698c0.493,-0.81 0.922,-1.577 1.282,-2.298c1.349,-2.786 1.754,-4.879 1.215,-6.273c-0.541,-1.395 -1.441,-2.16 -2.699,-2.294c-1.262,-0.136 -2.565,0.385 -3.913,1.552c-1.35,1.17 -2.074,2.923 -2.16,5.264Zm180.838,-82.324c-3.151,0.361 -6.432,2.072 -9.852,5.127c-3.419,3.063 -6.838,7.044 -10.255,11.946c-3.422,4.903 -6.839,10.525 -10.257,16.867c-3.421,6.346 -6.748,12.98 -9.987,19.908c6.028,-0.36 11.449,-1.44 16.262,-3.239c4.812,-1.801 9.154,-4.297 13.023,-7.489c3.869,-3.195 7.332,-6.995 10.393,-11.405c3.057,-4.406 5.801,-9.445 8.232,-15.115c0.718,-1.619 1.146,-3.442 1.28,-5.467c0.135,-2.025 -0.089,-3.888 -0.675,-5.6c-0.585,-1.708 -1.531,-3.123 -2.832,-4.25c-1.306,-1.123 -3.085,-1.551 -5.332,-1.283Z" style="fill:#ea618e;fill-rule:nonzero;"/>
            </g>
            <g transform="matrix(1.37456,-4.93038e-32,0,1,-1025.24,-1954)">
                <path d="M3325.13,388.148c-6.175,-34.558 -24.761,-66.621 -44.544,-98.466l20.792,-45.571l-41.461,-12.453c-25.575,55.478 -47.111,104.664 -64.323,137.362c-17.207,32.7 -80.875,33.971 -93.322,5.648c83.367,-62.398 92.606,-158.455 20.667,-149.276c-66.579,8.49 -60.565,125.453 -60.565,125.453c0,-0 -24.47,23.783 -57.67,27.932c-33.2,4.152 10.525,-147.89 10.525,-147.89l-45.571,0c-0,0 -27.433,108.292 -60.34,143.781c-29.653,31.986 -42.458,12.905 -50.575,9.111c-8.411,-3.922 93.47,-361.546 93.47,-361.546l-58.193,0.522l-60.829,211.084c-33.194,-0.673 -70.529,-5.444 -103.724,24.137c-44.611,41.91 -27.374,135.817 -78.954,118.923c-16.598,4.148 28.116,-126.37 28.116,-126.37c-3.033,-21.247 -68.727,-30.922 -101.418,-10.782c-64.851,39.946 -58.932,119.228 -71.122,148.147c-28.742,13.28 -36.7,4.506 -48.055,-24.652c47.758,-55.856 122.319,-337.07 26.877,-341.221c-1.491,-0.064 -2.928,-0.072 -4.366,0c-90.649,4.733 -78.18,282.939 -78.18,282.939c-0,0 -3.851,30.716 -16.818,48.398c-12.97,17.687 -34.695,30.329 -40.184,24.779l33.764,-148.662l-49.808,0c-0,0 -26.539,148.81 -55.589,154.304c-29.049,5.502 -20.801,-24.865 -20.801,-55.989c0,-45.833 6.242,-96.09 -26.955,-100.241c-33.196,-4.147 -68.554,52.506 -68.554,52.506c0,-0 1.853,-14.824 -6.807,-29.614c-4.303,-7.347 -11.186,-14.687 -22.203,-20.195c-33.199,-16.598 -116.181,24.9 -116.181,24.9c7.729,-35.042 -6.304,-79.247 -45.703,-78.819c-19.025,1.149 -34.966,8.929 -49.379,18.877c-11.945,8.244 -22.846,17.973 -33.551,26.698l5.057,5.057l28.192,28.187c-0,0 33.083,-37.306 49.681,-16.557c4.208,5.261 2.169,33.982 -3.212,73.893c-15.841,117.48 -60.683,332.092 -60.683,332.092l49.809,-0l47.337,-198.531c0,0 107.884,8.342 128.633,-16.56c20.747,-24.897 37.357,-91.271 37.357,-91.271c0,-0 45.677,-49.892 41.526,-33.29c-4.15,16.598 -8.356,128.632 12.391,132.777c20.748,4.158 62.262,0 62.262,0l-50.323,161.372l-57.511,4.619l-8.345,41.594l95.511,-0l67.011,-208.613c0,-0 30.079,-4.304 47.114,-13.603c17.038,-9.294 30.343,-25.754 42.622,-37.999c2.705,20.788 3.559,37.136 29.013,50.323c32.987,17.092 78.786,4.769 98.463,-10.272c47.723,31.123 87.166,-6.162 87.166,-6.162c0,-0 45.587,41.498 70.479,-0c68.475,45.65 105.783,-1.926 105.783,-1.926c0,-0 3.216,22.422 60.85,26.32c57.636,3.9 85.112,-51.996 85.112,-51.996c11.275,14.317 17.011,44.769 44.805,47.756c27.794,2.99 55.569,-14.81 76.639,-36.847c15.695,29.573 31.69,31.88 51.738,39.027c20.05,7.157 58.751,-14.163 75.099,-25.414c20.853,37.537 82.24,34.754 100.263,6.806c0.254,1.963 4.867,6.155 29.138,14.245c9.622,-7.018 12.358,-18.605 23.879,-34.275c-10.371,-4.149 -31.322,-14.506 -31.322,-14.506Zm-41.209,-0c-11.196,20.66 -50.605,-0.327 -48.398,-7.318l27.859,-54.302c-0,-0 25.02,53.366 20.539,61.62Zm-1189.4,-3.596c-25.124,16.784 -76.772,5.007 -76.772,5.007l20.541,-79.203c2.386,-0 36.677,-23.753 60.464,-23.239c5.492,0.12 10.399,1.445 14.251,4.753c20.539,17.604 2.408,78.725 -18.484,92.682Zm711.842,-13.865c-4.144,12.623 -60.4,22.829 -66.631,-6.033c-5.836,-27.059 10.072,-48.215 21.635,-62.732c9.337,-11.723 26.189,-16.773 41.466,-17.203c11.883,-0.334 16.578,-2.043 22.398,2.398l-18.868,83.57Zm-199.685,-5.88c-10.376,14.523 -38.115,20.777 -40.762,-0.409c-3.447,-27.575 20.694,-76.725 51.929,-77.345c3.233,-0.066 6.605,0.468 10.014,1.667l-21.181,76.087Zm505.314,-91.093c9.474,-7.969 16.364,-6.299 17.842,-0.83c1.48,5.469 -35.743,54.449 -35.743,54.449c0.201,-18.417 8.429,-45.66 17.901,-53.619Zm-666.108,8.397c-6.153,-2.035 10.415,-189.087 38.194,-192.993c0.441,-0.062 0.84,-0.037 1.285,0c19.835,1.609 -39.479,192.993 -39.479,192.993Zm562.349,-86.741c22.571,2.364 34.515,-13.943 35.213,-30.65c0.698,-16.708 -9.849,-33.817 -32.259,-33.055c-44.819,1.526 -35.269,60.322 -2.954,63.705Z" style="fill:#21112e;fill-rule:nonzero;"/>
            </g>
            <g transform="matrix(3.40848,-0.851134,0.894143,1.89514,-6878.77,117.403)">
                <ellipse cx="2496.5" cy="145" rx="94.5" ry="34" style="fill:url(#_Linear1);"/>
            </g>
            <g transform="matrix(1.37456,0,3.38855e-32,1,-1025.24,-1954)">
                <path d="M2067.5,14.413l71.958,161.543c-66.599,50.82 -135.18,80.759 -235.394,75.093l-47.826,-172.282c6.855,13.464 56.638,10.926 113.392,-6.077c58.039,-17.389 101.67,-43.406 97.87,-58.277Z" style="fill:#d7d7d7;"/>
            </g>
            <g transform="matrix(1.53946,-0.335548,0.325245,0.789765,-2219.35,-1184.98)">
                <ellipse cx="2496.5" cy="145" rx="94.5" ry="34" style="fill:url(#_Linear2);"/>
            </g>
            <g transform="matrix(1.65914,-1.47819e-16,2.03186e-16,1.20704,-2444.14,-2069.66)">
                <path d="M2624.66,234.867l4.654,10.333c-3.282,5.818 -9.285,12.582 -21.687,20.222c-9.468,5.832 -19.201,10.84 -28.501,15.609l-0.338,0.717c-6.032,8.685 -21.295,16.506 -45.366,23.247c-17.635,4.933 -34.166,7.533 -34.32,7.555l-0.181,0.024l-1.154,-0.264l-0.142,-0.263c-3.074,0.63 -5.883,1.135 -8.568,1.537c-1.395,0.208 -2.911,0.398 -4.418,0.517l-52.489,27.448l-41.779,11.627l1.555,-8.652l0.614,-0.99l25.931,-4.939l43.639,-24.44c-10.959,-1.26 -21.597,-4.35 -29.098,-9.228l-3.742,-13.739c0,-0 30.171,10.827 40.496,12.399l-58.387,-82.017c-0,0 -0.286,-3.518 2.393,-6.196c2.678,-2.679 6.055,-2.501 6.055,-2.501c-0,-0 43.836,59.706 59.451,79.248c5.517,-23.438 28.267,-111.624 34.038,-119.238l0.273,-0.226l0.437,-0.205l0.243,-0.044c0.149,-0.031 3.672,-0.685 7.271,-0.685c5.047,-0 7.968,1.346 8.713,4.164l0.024,0.259l-0.035,0.35l-0.049,0.173c-8.398,29.539 -29.982,106.593 -32.926,122.052c8.377,-2.795 36.503,-12.344 63.663,-23.596c7.133,-5.851 12.221,-10.435 13.203,-11.327l1.212,-1.095l4.931,3.949c23.777,-10.974 40.858,-25.059 44.384,-31.785Z" style="fill:#21112e;fill-rule:nonzero;"/>
            </g>
        </g>
    </g>
    <defs>
        <linearGradient id="_Linear1" x1="0" y1="0" x2="1" y2="0" gradientUnits="userSpaceOnUse" gradientTransform="matrix(4.82752,64.997,-49.6751,6.31654,2432.1,112.294)"><stop offset="0" style="stop-color:#dcdcdc;stop-opacity:1"/><stop offset="1" style="stop-color:#fafafa;stop-opacity:1"/></linearGradient>
        <linearGradient id="_Linear2" x1="0" y1="0" x2="1" y2="0" gradientUnits="userSpaceOnUse" gradientTransform="matrix(5.09421,72.2349,-50.9378,7.2241,2483.25,102.397)"><stop offset="0" style="stop-color:#dcdcdc;stop-opacity:1"/><stop offset="0.44" style="stop-color:#f4f4f4;stop-opacity:1"/><stop offset="1" style="stop-color:#fafafa;stop-opacity:1"/></linearGradient>
    </defs>
</svg>
